<?xml version="1.0" encoding="UTF-8"?>
<svg width="1907px" height="489px" viewBox="0 0 1907 489" version="1.1" xmlns="http://www.w3.org/2000/svg" xmlns:xlink="http://www.w3.org/1999/xlink">
    <title>Group 47</title>
    <defs>
        <filter id="filter-1">
            <feColorMatrix in="SourceGraphic" type="matrix" values="0 0 0 0 1.000000 0 0 0 0 1.000000 0 0 0 0 1.000000 0 0 0 1.000000 0"></feColorMatrix>
        </filter>
    </defs>
    <g id="API" stroke="none" stroke-width="1" fill="none" fill-rule="evenodd">
        <g id="Group-217-Copy-4" transform="translate(-182.000000, -147.000000)">
            <g id="Group-47" transform="translate(182.000000, 147.000000)">
                <g id="Group-46" transform="translate(2.000000, 0.000000)">
                    <g filter="url(#filter-1)" id="Group-8-Copy-6">
                        <g>
                            <path d="M184.777184,231.384429 C184.777184,228.888322 184.09322,226.392214 183.409256,224.257179 L113.088744,17.8259732 C109.3307,6.42080408 102.844317,0 92.5998903,0 C82.3629796,0 76.5605603,6.42080408 72.8025167,17.8259732 L1.45230101,224.257179 C0.768337077,226.392214 0.0843731432,228.888322 0.0843731432,231.384429 C0.0843731432,240.30134 6.57075639,246 14.4250675,246 C21.2571908,246 26.71387,242.083153 29.1039858,234.594831 L44.812608,187.890938 L44.902801,187.890938 L54.8014879,158.651946 L54.7112948,158.651946 L92.2616664,48.4857052 L93.2838543,48.4857052 L130.157778,158.651946 L130.060069,158.651946 L139.95124,187.890938 L140.056465,187.890938 L155.757571,234.594831 C158.147687,242.083153 163.611882,246 170.436489,246 C178.2908,246 184.777184,240.30134 184.777184,231.384429" id="Fill-6" fill="#000000"></path>
                            <path d="M220.045157,228.888322 C220.045157,239.587045 225.116438,246 232.71716,246 C240.0389,246 245.103981,239.587045 245.103981,228.888322 L245.103981,17.1116784 C245.103981,6.42080408 240.0389,0 232.71716,0 C225.116438,0 220.045157,6.42080408 220.045157,17.1116784 L220.045157,228.888322 Z" id="Fill-7" fill="#000000"></path>
                            <path d="M310.071301,229.955839 C310.071301,239.940268 315.822194,246 324.284647,246 C332.739652,246 338.155324,239.940268 338.155324,229.955839 L338.155324,72.0181876 L339.168434,72.0181876 L391.954478,195.018188 C397.37015,207.490874 401.430042,210.701276 409.207156,210.701276 C416.991719,210.701276 421.386831,207.490874 426.802504,195.018188 L479.588547,72.0181876 L480.601658,72.0181876 L480.601658,229.955839 C480.601658,239.940268 486.01733,246 494.472334,246 C502.934788,246 508.68568,239.940268 508.68568,229.955839 L508.68568,19.6077856 C508.68568,7.48832163 502.256897,0 491.768223,0 C482.635328,0 477.897546,5.69865986 473.159764,17.1116784 L410.562936,168.636375 L409.549826,168.636375 L345.939887,17.1116784 C341.202105,5.69865986 336.121653,0 326.988759,0 C316.500084,0 310.071301,7.48832163 310.071301,19.6077856 L310.071301,229.955839 Z" id="Fill-8" fill="#000000"></path>
                            <path d="M577.799929,10.2113208 C568.249171,10.2113208 562.515746,15.6589807 562.515746,23.823414 C562.515746,31.6914721 568.249171,37.1320755 577.799929,37.1320755 L693.872085,37.1320755 C703.422843,37.1320755 709.156269,31.6914721 709.156269,23.823414 C709.156269,15.6589807 703.422843,10.2113208 693.872085,10.2113208 L577.799929,10.2113208 Z" id="Fill-9" fill="#000000"></path>
                            <path d="M577.799929,211.65283 C568.249171,211.65283 562.515746,217.10049 562.515746,225.264923 C562.515746,233.132982 568.249171,238.573585 577.799929,238.573585 L693.872085,238.573585 C703.422843,238.573585 709.156269,233.132982 709.156269,225.264923 C709.156269,217.10049 703.422843,211.65283 693.872085,211.65283 L577.799929,211.65283 Z" id="Fill-10" fill="#000000"></path>
                            <path d="M577.799929,111.396226 C568.249171,111.396226 562.515746,116.843886 562.515746,125.00832 C562.515746,132.876378 568.249171,138.316981 577.799929,138.316981 L693.872085,138.316981 C703.422843,138.316981 709.156269,132.876378 709.156269,125.00832 C709.156269,116.843886 703.422843,111.396226 693.872085,111.396226 L577.799929,111.396226 Z" id="Fill-11" fill="#000000"></path>
                        </g>
                    </g>
                    <g id="Group-45" transform="translate(877.000000, 1.000000)">
                        <g id="Group-218" transform="translate(489.000000, 3.000000)" fill="#FFFFFF" fill-rule="nonzero">
                            <g id="Group-199" transform="translate(483.695375, 0.929333)">
                                <path d="M24.0451128,239.876034 C31.443609,239.876034 37.3007519,237.530877 41.6165414,232.840564 C45.9323308,228.15025 48.0902256,221.784825 48.0902256,213.744287 L48.0902256,213.744287 L48.0902256,25.7967243 C48.0902256,17.9795351 45.9323308,11.7257838 41.6165414,7.03547027 C37.3007519,2.34515676 31.443609,0 24.0451128,0 C16.6466165,0 10.7894737,2.34515676 6.47368421,7.03547027 C2.15789474,11.7257838 0,17.9795351 0,25.7967243 L0,25.7967243 L0,213.744287 C0,221.784825 2.15789474,228.15025 6.47368421,232.840564 C10.7894737,237.530877 16.6466165,239.876034 24.0451128,239.876034 Z" id="I"></path>
                            </g>
                            <g id="Group-197" transform="translate(0.121440, 2.269423)">
                                <path d="M201.291306,239.876034 C207.334213,239.876034 212.699897,237.695343 217.388359,233.33396 C222.076822,228.972578 224.421053,223.660638 224.421053,217.39814 C224.421053,214.266891 223.587548,210.688321 221.92054,206.662429 L221.92054,206.662429 L137.528222,16.4390569 C135.027709,11.2948622 131.485315,7.26897072 126.901041,4.36138243 C122.316767,1.45379414 117.315741,0 111.897962,0 C106.68856,0 101.791722,1.39787899 97.2074476,4.19363696 C92.6231735,6.98939493 89.184968,11.0712016 86.892831,16.4390569 L86.892831,16.4390569 L2.50051312,206.662429 C0.833504374,210.688321 0,214.266891 0,217.39814 C0,223.660638 2.39632507,228.972578 7.18897522,233.33396 C11.9816254,237.695343 17.3994038,239.876034 23.4423105,239.876034 C27.6098324,239.876034 31.4126961,238.701816 34.8509016,236.353379 C38.2891072,234.004942 40.9459024,230.482287 42.8212872,225.785414 L42.8212872,225.785414 L59.3871866,186.197481 L165.34643,186.197481 L181.91233,225.785414 C183.787714,230.482287 186.496604,234.004942 190.038997,236.353379 C193.581391,238.701816 197.33216,239.876034 201.291306,239.876034 Z M148.712746,144.470793 L75.7083069,144.470793 L112.367188,57.2431444 L148.712746,144.470793 Z" id="A"></path>
                            </g>
                            <g id="Group-198" transform="translate(267.289360, 8.969870)">
                                <path d="M24.0733845,231.835496 C31.4805798,231.835496 37.3446093,229.553009 41.6654732,224.988035 C45.9863371,220.42306 48.146769,214.227737 48.146769,206.402066 L48.146769,206.402066 L48.146769,143.470631 L99.9971357,143.470631 C123.659009,143.470631 142.07412,137.166618 155.242467,124.558593 C168.410814,111.950568 174.994987,94.3428087 174.994987,71.7353153 C174.994987,49.127822 168.410814,31.5200628 155.242467,18.9120377 C142.07412,6.30401256 123.659009,0 99.9971357,0 L99.9971357,0 L22.5302188,0 C15.328779,0 9.7733826,2.06510756 5.86402956,6.19532269 C1.95467652,10.3255378 0,16.1947909 0,23.8030819 L0,23.8030819 L0,206.402066 C0,214.227737 2.16043194,220.42306 6.48129583,224.988035 C10.8021597,229.553009 16.6661893,231.835496 24.0733845,231.835496 Z M93.6625589,105.007842 L47.8501919,105.007842 L47.8501919,39.5484082 L93.6625589,39.5484082 C117.806914,39.5484082 129.879092,50.5120573 129.879092,72.4393555 C129.879092,94.1516802 117.806914,105.007842 93.6625589,105.007842 L93.6625589,105.007842 Z" id="P"></path>
                            </g>
                        </g>
                        <g id="Group-219">
                            <path d="M52.7246634,0.176134854 C36.507969,0.176134854 26.7729084,9.39933488 26.7729084,23.2221878 C26.7729084,36.5432604 36.507969,45.7545132 52.7246634,45.7545132 L249.809201,45.7545132 C266.025896,45.7545132 275.760956,36.5432604 275.760956,23.2221878 C275.760956,9.39933488 266.025896,0.176134854 249.809201,0.176134854 L52.7246634,0.176134854 Z" id="Fill-9" fill="#D55151"></path>
                            <path d="M25.951755,201.257216 C9.73506067,201.257216 0,210.480416 0,224.303269 C0,237.624341 9.73506067,246.835594 25.951755,246.835594 L223.036293,246.835594 C239.252987,246.835594 248.988048,237.624341 248.988048,224.303269 C248.988048,210.480416 239.252987,201.257216 223.036293,201.257216 L25.951755,201.257216 Z" id="Fill-10" fill="#00C2DA"></path>
                            <path d="M112.963707,100.716675 C96.7470129,100.716675 87.0119522,109.939875 87.0119522,123.762728 C87.0119522,137.083801 96.7470129,146.295054 112.963707,146.295054 L310.048245,146.295054 C326.264939,146.295054 336,137.083801 336,123.762728 C336,109.939875 326.264939,100.716675 310.048245,100.716675 L112.963707,100.716675 Z" id="Fill-11" fill="#FFBC44"></path>
                        </g>
                    </g>
                </g>
                <path d="M31.314,421.51 C33.286,421.51 34.867,420.915 36.057,419.725 C37.247,418.535 37.842,416.954 37.842,414.982 L37.842,414.982 L37.842,359.902 L56.406,359.902 C60.486,359.902 62.526,358.1 62.526,354.496 C62.526,350.892 60.486,349.09 56.406,349.09 L56.406,349.09 L6.12,349.09 C2.04,349.09 0,350.892 0,354.496 C0,358.1 2.04,359.902 6.12,359.902 L6.12,359.902 L24.684,359.902 L24.684,414.982 C24.684,416.954 25.279,418.535 26.469,419.725 C27.659,420.915 29.274,421.51 31.314,421.51 Z M109.548,421.612 C111.52,421.612 113.067,421.068 114.189,419.98 C115.311,418.892 115.872,417.396 115.872,415.492 L115.872,415.492 L115.872,390.4 C115.872,376.732 110.024,369.898 98.328,369.898 C94.724,369.898 91.511,370.595 88.689,371.989 C85.867,373.383 83.606,375.406 81.906,378.058 L81.906,378.058 L81.906,354.292 C81.906,352.524 81.328,351.13 80.172,350.11 C79.016,349.09 77.486,348.58 75.582,348.58 C73.678,348.58 72.131,349.124 70.941,350.212 C69.751,351.3 69.156,352.728 69.156,354.496 L69.156,354.496 L69.156,415.492 C69.156,417.396 69.717,418.892 70.839,419.98 C71.961,421.068 73.508,421.612 75.48,421.612 C77.452,421.612 79.016,421.068 80.172,419.98 C81.328,418.892 81.906,417.396 81.906,415.492 L81.906,415.492 L81.906,392.746 C81.906,388.87 83.011,385.776 85.221,383.464 C87.431,381.152 90.372,379.996 94.044,379.996 C97.172,379.996 99.467,380.829 100.929,382.495 C102.391,384.161 103.122,386.796 103.122,390.4 L103.122,390.4 L103.122,415.492 C103.122,417.396 103.7,418.892 104.856,419.98 C106.012,421.068 107.576,421.612 109.548,421.612 Z M152.184,421.816 C154.836,421.816 157.624,421.425 160.548,420.643 C163.472,419.861 166.09,418.824 168.402,417.532 C170.918,416.104 172.176,414.336 172.176,412.228 C172.176,410.732 171.819,409.542 171.105,408.658 C170.391,407.774 169.456,407.332 168.3,407.332 C167.348,407.332 165.852,407.876 163.812,408.964 C161.704,409.916 159.817,410.664 158.151,411.208 C156.485,411.752 154.564,412.024 152.388,412.024 C148.104,412.024 144.84,410.919 142.596,408.709 C140.352,406.499 139.026,403.048 138.618,398.356 L138.618,398.356 L168.708,398.356 C171.292,398.356 172.584,396.894 172.584,393.97 C172.584,389.074 171.666,384.824 169.83,381.22 C167.994,377.616 165.41,374.828 162.078,372.856 C158.746,370.884 154.836,369.898 150.348,369.898 C145.656,369.898 141.457,370.986 137.751,373.162 C134.045,375.338 131.172,378.398 129.132,382.342 C127.092,386.286 126.072,390.808 126.072,395.908 C126.072,403.932 128.418,410.256 133.11,414.88 C137.802,419.504 144.16,421.816 152.184,421.816 Z M161.67,391.522 L138.618,391.522 C139.026,387.442 140.267,384.314 142.341,382.138 C144.415,379.962 147.186,378.874 150.654,378.874 C154.054,378.874 156.706,379.945 158.61,382.087 C160.514,384.229 161.534,387.374 161.67,391.522 L161.67,391.522 Z M236.64,421.918 C242.148,421.918 247.027,421.017 251.277,419.215 C255.527,417.413 258.825,414.897 261.171,411.667 C263.517,408.437 264.69,404.714 264.69,400.498 C264.69,396.622 263.687,393.392 261.681,390.808 C259.675,388.224 256.785,386.099 253.011,384.433 C249.237,382.767 244.324,381.254 238.272,379.894 C232.56,378.602 228.514,377.208 226.134,375.712 C223.754,374.216 222.564,372.074 222.564,369.286 C222.564,365.954 223.907,363.353 226.593,361.483 C229.279,359.613 232.934,358.678 237.558,358.678 C241.366,358.678 244.579,359.171 247.197,360.157 C249.815,361.143 252.518,362.656 255.306,364.696 C256.258,365.24 257.023,365.614 257.601,365.818 C258.179,366.022 258.808,366.124 259.488,366.124 C260.644,366.124 261.647,365.597 262.497,364.543 C263.347,363.489 263.772,362.248 263.772,360.82 C263.772,359.732 263.585,358.831 263.211,358.117 C262.837,357.403 262.208,356.672 261.324,355.924 C255.204,350.756 247.282,348.172 237.558,348.172 C232.254,348.172 227.477,349.107 223.227,350.977 C218.977,352.847 215.662,355.448 213.282,358.78 C210.902,362.112 209.712,365.886 209.712,370.102 C209.712,374.182 210.664,377.548 212.568,380.2 C214.472,382.852 217.294,385.028 221.034,386.728 C224.774,388.428 229.636,389.924 235.62,391.216 C241.4,392.508 245.531,393.851 248.013,395.245 C250.495,396.639 251.736,398.628 251.736,401.212 C251.736,404.544 250.41,407.077 247.758,408.811 C245.106,410.545 241.298,411.412 236.334,411.412 C232.458,411.412 228.922,410.936 225.726,409.984 C222.53,409.032 219.47,407.502 216.546,405.394 C214.982,404.442 213.588,403.966 212.364,403.966 C211.208,403.966 210.205,404.493 209.355,405.547 C208.505,406.601 208.08,407.842 208.08,409.27 C208.08,411.378 208.862,413.01 210.426,414.166 C213.35,416.546 217.141,418.433 221.799,419.827 C226.457,421.221 231.404,421.918 236.64,421.918 Z M297.84,421.816 C300.764,421.816 303.62,421.425 306.408,420.643 C309.196,419.861 311.644,418.79 313.752,417.43 C314.908,416.75 315.741,415.985 316.251,415.135 C316.761,414.285 317.016,413.282 317.016,412.126 C317.016,410.698 316.642,409.508 315.894,408.556 C315.146,407.604 314.228,407.128 313.14,407.128 C312.392,407.128 311.644,407.281 310.896,407.587 C310.148,407.893 309.264,408.352 308.244,408.964 C306.612,409.848 305.133,410.545 303.807,411.055 C302.481,411.565 300.968,411.82 299.268,411.82 C295.052,411.82 291.805,410.443 289.527,407.689 C287.249,404.935 286.11,401.008 286.11,395.908 C286.11,390.74 287.249,386.779 289.527,384.025 C291.805,381.271 295.052,379.894 299.268,379.894 C301.036,379.894 302.6,380.149 303.96,380.659 C305.32,381.169 306.748,381.866 308.244,382.75 C309.06,383.226 309.876,383.634 310.692,383.974 C311.508,384.314 312.29,384.484 313.038,384.484 C314.194,384.484 315.129,384.025 315.843,383.107 C316.557,382.189 316.914,380.982 316.914,379.486 C316.914,377.31 315.826,375.508 313.65,374.08 C311.61,372.788 309.247,371.768 306.561,371.02 C303.875,370.272 301.206,369.898 298.554,369.898 C293.522,369.898 289.068,370.986 285.192,373.162 C281.316,375.338 278.307,378.415 276.165,382.393 C274.023,386.371 272.952,390.944 272.952,396.112 C272.952,401.28 273.972,405.802 276.012,409.678 C278.052,413.554 280.959,416.546 284.733,418.654 C288.507,420.762 292.876,421.816 297.84,421.816 Z M341.394,421.816 C344.658,421.816 347.531,421.068 350.013,419.572 C352.495,418.076 354.314,416.002 355.47,413.35 L355.47,413.35 L355.47,415.594 C355.47,417.362 356.031,418.79 357.153,419.878 C358.275,420.966 359.72,421.51 361.488,421.51 C363.392,421.51 364.888,420.983 365.976,419.929 C367.064,418.875 367.608,417.43 367.608,415.594 L367.608,415.594 L367.608,390.706 C367.608,383.702 365.925,378.483 362.559,375.049 C359.193,371.615 354.042,369.898 347.106,369.898 C343.91,369.898 340.663,370.272 337.365,371.02 C334.067,371.768 331.228,372.788 328.848,374.08 C327.488,374.828 326.519,375.627 325.941,376.477 C325.363,377.327 325.074,378.33 325.074,379.486 C325.074,380.914 325.465,382.07 326.247,382.954 C327.029,383.838 328.032,384.28 329.256,384.28 C330.072,384.28 331.364,383.838 333.132,382.954 C335.92,381.866 338.334,381.033 340.374,380.455 C342.414,379.877 344.42,379.588 346.392,379.588 C349.588,379.588 351.9,380.353 353.328,381.883 C354.756,383.413 355.47,385.844 355.47,389.176 L355.47,389.176 L355.47,391.522 L352.92,391.522 C345.508,391.522 339.694,391.998 335.478,392.95 C331.262,393.902 328.219,395.432 326.349,397.54 C324.479,399.648 323.544,402.538 323.544,406.21 C323.544,409.134 324.326,411.786 325.89,414.166 C327.454,416.546 329.596,418.416 332.316,419.776 C335.036,421.136 338.062,421.816 341.394,421.816 Z M343.944,412.636 C341.7,412.636 339.813,411.939 338.283,410.545 C336.753,409.151 335.988,407.366 335.988,405.19 C335.988,403.422 336.532,402.028 337.62,401.008 C338.708,399.988 340.51,399.274 343.026,398.866 C345.542,398.458 349.078,398.254 353.634,398.254 L353.634,398.254 L355.47,398.254 L355.47,400.396 C355.47,404 354.399,406.941 352.257,409.219 C350.115,411.497 347.344,412.636 343.944,412.636 Z M386.886,421.612 C388.722,421.612 390.252,421.085 391.476,420.031 C392.7,418.977 393.312,417.464 393.312,415.492 L393.312,415.492 L393.312,354.598 C393.312,352.626 392.7,351.13 391.476,350.11 C390.252,349.09 388.722,348.58 386.886,348.58 C385.05,348.58 383.537,349.09 382.347,350.11 C381.157,351.13 380.562,352.626 380.562,354.598 L380.562,354.598 L380.562,415.492 C380.562,417.464 381.157,418.977 382.347,420.031 C383.537,421.085 385.05,421.612 386.886,421.612 Z M422.382,421.816 C425.646,421.816 428.519,421.068 431.001,419.572 C433.483,418.076 435.302,416.002 436.458,413.35 L436.458,413.35 L436.458,415.594 C436.458,417.362 437.019,418.79 438.141,419.878 C439.263,420.966 440.708,421.51 442.476,421.51 C444.38,421.51 445.876,420.983 446.964,419.929 C448.052,418.875 448.596,417.43 448.596,415.594 L448.596,415.594 L448.596,390.706 C448.596,383.702 446.913,378.483 443.547,375.049 C440.181,371.615 435.03,369.898 428.094,369.898 C424.898,369.898 421.651,370.272 418.353,371.02 C415.055,371.768 412.216,372.788 409.836,374.08 C408.476,374.828 407.507,375.627 406.929,376.477 C406.351,377.327 406.062,378.33 406.062,379.486 C406.062,380.914 406.453,382.07 407.235,382.954 C408.017,383.838 409.02,384.28 410.244,384.28 C411.06,384.28 412.352,383.838 414.12,382.954 C416.908,381.866 419.322,381.033 421.362,380.455 C423.402,379.877 425.408,379.588 427.38,379.588 C430.576,379.588 432.888,380.353 434.316,381.883 C435.744,383.413 436.458,385.844 436.458,389.176 L436.458,389.176 L436.458,391.522 L433.908,391.522 C426.496,391.522 420.682,391.998 416.466,392.95 C412.25,393.902 409.207,395.432 407.337,397.54 C405.467,399.648 404.532,402.538 404.532,406.21 C404.532,409.134 405.314,411.786 406.878,414.166 C408.442,416.546 410.584,418.416 413.304,419.776 C416.024,421.136 419.05,421.816 422.382,421.816 Z M424.932,412.636 C422.688,412.636 420.801,411.939 419.271,410.545 C417.741,409.151 416.976,407.366 416.976,405.19 C416.976,403.422 417.52,402.028 418.608,401.008 C419.696,399.988 421.498,399.274 424.014,398.866 C426.53,398.458 430.066,398.254 434.622,398.254 L434.622,398.254 L436.458,398.254 L436.458,400.396 C436.458,404 435.387,406.941 433.245,409.219 C431.103,411.497 428.332,412.636 424.932,412.636 Z M490.212,421.816 C494.496,421.816 498.321,420.728 501.687,418.552 C505.053,416.376 507.671,413.299 509.541,409.321 C511.411,405.343 512.346,400.77 512.346,395.602 C512.346,390.434 511.411,385.912 509.541,382.036 C507.671,378.16 505.07,375.168 501.738,373.06 C498.406,370.952 494.564,369.898 490.212,369.898 C486.676,369.898 483.514,370.629 480.726,372.091 C477.938,373.553 475.796,375.644 474.3,378.364 L474.3,378.364 L474.3,354.292 C474.3,352.524 473.722,351.13 472.566,350.11 C471.41,349.09 469.88,348.58 467.976,348.58 C466.072,348.58 464.525,349.124 463.335,350.212 C462.145,351.3 461.55,352.728 461.55,354.496 L461.55,354.496 L461.55,415.492 C461.55,417.328 462.111,418.79 463.233,419.878 C464.355,420.966 465.868,421.51 467.772,421.51 C469.676,421.51 471.206,420.966 472.362,419.878 C473.518,418.79 474.096,417.328 474.096,415.492 L474.096,415.492 L474.096,412.942 C475.592,415.73 477.751,417.906 480.573,419.47 C483.395,421.034 486.608,421.816 490.212,421.816 Z M486.846,411.922 C482.766,411.922 479.621,410.528 477.411,407.74 C475.201,404.952 474.096,400.974 474.096,395.806 C474.096,390.638 475.201,386.677 477.411,383.923 C479.621,381.169 482.766,379.792 486.846,379.792 C490.926,379.792 494.071,381.152 496.281,383.872 C498.491,386.592 499.596,390.502 499.596,395.602 C499.596,400.77 498.474,404.782 496.23,407.638 C493.986,410.494 490.858,411.922 486.846,411.922 Z M529.176,421.612 C531.012,421.612 532.542,421.085 533.766,420.031 C534.99,418.977 535.602,417.464 535.602,415.492 L535.602,415.492 L535.602,354.598 C535.602,352.626 534.99,351.13 533.766,350.11 C532.542,349.09 531.012,348.58 529.176,348.58 C527.34,348.58 525.827,349.09 524.637,350.11 C523.447,351.13 522.852,352.626 522.852,354.598 L522.852,354.598 L522.852,415.492 C522.852,417.464 523.447,418.977 524.637,420.031 C525.827,421.085 527.34,421.612 529.176,421.612 Z M572.118,421.816 C574.77,421.816 577.558,421.425 580.482,420.643 C583.406,419.861 586.024,418.824 588.336,417.532 C590.852,416.104 592.11,414.336 592.11,412.228 C592.11,410.732 591.753,409.542 591.039,408.658 C590.325,407.774 589.39,407.332 588.234,407.332 C587.282,407.332 585.786,407.876 583.746,408.964 C581.638,409.916 579.751,410.664 578.085,411.208 C576.419,411.752 574.498,412.024 572.322,412.024 C568.038,412.024 564.774,410.919 562.53,408.709 C560.286,406.499 558.96,403.048 558.552,398.356 L558.552,398.356 L588.642,398.356 C591.226,398.356 592.518,396.894 592.518,393.97 C592.518,389.074 591.6,384.824 589.764,381.22 C587.928,377.616 585.344,374.828 582.012,372.856 C578.68,370.884 574.77,369.898 570.282,369.898 C565.59,369.898 561.391,370.986 557.685,373.162 C553.979,375.338 551.106,378.398 549.066,382.342 C547.026,386.286 546.006,390.808 546.006,395.908 C546.006,403.932 548.352,410.256 553.044,414.88 C557.736,419.504 564.094,421.816 572.118,421.816 Z M581.604,391.522 L558.552,391.522 C558.96,387.442 560.201,384.314 562.275,382.138 C564.349,379.962 567.12,378.874 570.588,378.874 C573.988,378.874 576.64,379.945 578.544,382.087 C580.448,384.229 581.468,387.374 581.604,391.522 L581.604,391.522 Z M695.946,421.612 C697.714,421.612 699.142,421.068 700.23,419.98 C701.318,418.892 701.862,417.396 701.862,415.492 L701.862,415.492 L701.862,355.108 C701.862,353.136 701.284,351.555 700.128,350.365 C698.972,349.175 697.442,348.58 695.538,348.58 C693.022,348.58 691.016,350.042 689.52,352.966 L689.52,352.966 L666.978,396.112 L644.334,352.966 C642.838,350.042 640.764,348.58 638.112,348.58 C636.208,348.58 634.695,349.175 633.573,350.365 C632.451,351.555 631.89,353.136 631.89,355.108 L631.89,355.108 L631.89,415.492 C631.89,417.396 632.4,418.892 633.42,419.98 C634.44,421.068 635.834,421.612 637.602,421.612 C639.37,421.612 640.781,421.051 641.835,419.929 C642.889,418.807 643.416,417.328 643.416,415.492 L643.416,415.492 L643.416,373.978 L660.858,406.312 C661.674,407.876 662.558,408.998 663.51,409.678 C664.462,410.358 665.584,410.698 666.876,410.698 C668.168,410.698 669.29,410.341 670.242,409.627 C671.194,408.913 672.078,407.808 672.894,406.312 L672.894,406.312 L690.234,373.468 L690.234,415.492 C690.234,417.396 690.744,418.892 691.764,419.98 C692.784,421.068 694.178,421.612 695.946,421.612 Z M739.092,421.816 C744.192,421.816 748.663,420.762 752.505,418.654 C756.347,416.546 759.305,413.52 761.379,409.576 C763.453,405.632 764.49,401.042 764.49,395.806 C764.49,390.57 763.453,385.997 761.379,382.087 C759.305,378.177 756.347,375.168 752.505,373.06 C748.663,370.952 744.192,369.898 739.092,369.898 C733.992,369.898 729.521,370.952 725.679,373.06 C721.837,375.168 718.862,378.177 716.754,382.087 C714.646,385.997 713.592,390.57 713.592,395.806 C713.592,401.042 714.646,405.632 716.754,409.576 C718.862,413.52 721.837,416.546 725.679,418.654 C729.521,420.762 733.992,421.816 739.092,421.816 Z M738.99,411.922 C734.91,411.922 731.782,410.562 729.606,407.842 C727.43,405.122 726.342,401.11 726.342,395.806 C726.342,390.57 727.447,386.575 729.657,383.821 C731.867,381.067 735.012,379.69 739.092,379.69 C743.172,379.69 746.3,381.067 748.476,383.821 C750.652,386.575 751.74,390.57 751.74,395.806 C751.74,401.11 750.652,405.122 748.476,407.842 C746.3,410.562 743.138,411.922 738.99,411.922 Z M794.376,421.816 C797.98,421.816 801.193,421.034 804.015,419.47 C806.837,417.906 808.996,415.73 810.492,412.942 L810.492,412.942 L810.492,415.492 C810.492,417.328 811.07,418.79 812.226,419.878 C813.382,420.966 814.912,421.51 816.816,421.51 C818.72,421.51 820.25,420.966 821.406,419.878 C822.562,418.79 823.14,417.328 823.14,415.492 L823.14,415.492 L823.14,354.496 C823.14,352.728 822.528,351.3 821.304,350.212 C820.08,349.124 818.516,348.58 816.612,348.58 C814.708,348.58 813.195,349.107 812.073,350.161 C810.951,351.215 810.39,352.592 810.39,354.292 L810.39,354.292 L810.39,378.466 C808.894,375.746 806.752,373.638 803.964,372.142 C801.176,370.646 797.98,369.898 794.376,369.898 C790.024,369.898 786.182,370.952 782.85,373.06 C779.518,375.168 776.917,378.16 775.047,382.036 C773.177,385.912 772.242,390.434 772.242,395.602 C772.242,400.77 773.177,405.343 775.047,409.321 C776.917,413.299 779.535,416.376 782.901,418.552 C786.267,420.728 790.092,421.816 794.376,421.816 Z M797.742,411.922 C793.73,411.922 790.602,410.494 788.358,407.638 C786.114,404.782 784.992,400.77 784.992,395.602 C784.992,390.502 786.114,386.592 788.358,383.872 C790.602,381.152 793.764,379.792 797.844,379.792 C801.856,379.792 804.967,381.169 807.177,383.923 C809.387,386.677 810.492,390.638 810.492,395.806 C810.492,400.974 809.387,404.952 807.177,407.74 C804.967,410.528 801.822,411.922 797.742,411.922 Z M859.656,421.816 C862.308,421.816 865.096,421.425 868.02,420.643 C870.944,419.861 873.562,418.824 875.874,417.532 C878.39,416.104 879.648,414.336 879.648,412.228 C879.648,410.732 879.291,409.542 878.577,408.658 C877.863,407.774 876.928,407.332 875.772,407.332 C874.82,407.332 873.324,407.876 871.284,408.964 C869.176,409.916 867.289,410.664 865.623,411.208 C863.957,411.752 862.036,412.024 859.86,412.024 C855.576,412.024 852.312,410.919 850.068,408.709 C847.824,406.499 846.498,403.048 846.09,398.356 L846.09,398.356 L876.18,398.356 C878.764,398.356 880.056,396.894 880.056,393.97 C880.056,389.074 879.138,384.824 877.302,381.22 C875.466,377.616 872.882,374.828 869.55,372.856 C866.218,370.884 862.308,369.898 857.82,369.898 C853.128,369.898 848.929,370.986 845.223,373.162 C841.517,375.338 838.644,378.398 836.604,382.342 C834.564,386.286 833.544,390.808 833.544,395.908 C833.544,403.932 835.89,410.256 840.582,414.88 C845.274,419.504 851.632,421.816 859.656,421.816 Z M869.142,391.522 L846.09,391.522 C846.498,387.442 847.739,384.314 849.813,382.138 C851.887,379.962 854.658,378.874 858.126,378.874 C861.526,378.874 864.178,379.945 866.082,382.087 C867.986,384.229 869.006,387.374 869.142,391.522 L869.142,391.522 Z M896.784,421.612 C898.62,421.612 900.15,421.085 901.374,420.031 C902.598,418.977 903.21,417.464 903.21,415.492 L903.21,415.492 L903.21,354.598 C903.21,352.626 902.598,351.13 901.374,350.11 C900.15,349.09 898.62,348.58 896.784,348.58 C894.948,348.58 893.435,349.09 892.245,350.11 C891.055,351.13 890.46,352.626 890.46,354.598 L890.46,354.598 L890.46,415.492 C890.46,417.464 891.055,418.977 892.245,420.031 C893.435,421.085 894.948,421.612 896.784,421.612 Z M951.66,421.612 C953.7,421.612 955.315,421 956.505,419.776 C957.695,418.552 958.29,416.954 958.29,414.982 L958.29,414.982 L958.29,355.108 C958.29,353.136 957.695,351.555 956.505,350.365 C955.315,349.175 953.7,348.58 951.66,348.58 C949.688,348.58 948.107,349.175 946.917,350.365 C945.727,351.555 945.132,353.136 945.132,355.108 L945.132,355.108 L945.132,414.982 C945.132,416.954 945.727,418.552 946.917,419.776 C948.107,421 949.688,421.612 951.66,421.612 Z M1013.064,421.612 C1015.036,421.612 1016.583,421.068 1017.705,419.98 C1018.827,418.892 1019.388,417.396 1019.388,415.492 L1019.388,415.492 L1019.388,390.4 C1019.388,383.532 1017.926,378.398 1015.002,374.998 C1012.078,371.598 1007.624,369.898 1001.64,369.898 C998.036,369.898 994.806,370.646 991.95,372.142 C989.094,373.638 986.816,375.78 985.116,378.568 L985.116,378.568 L985.116,375.814 C985.116,374.114 984.555,372.737 983.433,371.683 C982.311,370.629 980.866,370.102 979.098,370.102 C977.126,370.102 975.562,370.646 974.406,371.734 C973.25,372.822 972.672,374.25 972.672,376.018 L972.672,376.018 L972.672,415.492 C972.672,417.396 973.233,418.892 974.355,419.98 C975.477,421.068 977.024,421.612 978.996,421.612 C980.968,421.612 982.532,421.068 983.688,419.98 C984.844,418.892 985.422,417.396 985.422,415.492 L985.422,415.492 L985.422,392.746 C985.422,388.87 986.527,385.776 988.737,383.464 C990.947,381.152 993.888,379.996 997.56,379.996 C1000.688,379.996 1002.983,380.88 1004.445,382.648 C1005.907,384.416 1006.638,387.238 1006.638,391.114 L1006.638,391.114 L1006.638,415.492 C1006.638,417.396 1007.216,418.892 1008.372,419.98 C1009.528,421.068 1011.092,421.612 1013.064,421.612 Z M1042.236,421.51 C1044.072,421.51 1045.585,421 1046.775,419.98 C1047.965,418.96 1048.56,417.464 1048.56,415.492 L1048.56,415.492 L1048.56,380.71 L1057.23,380.71 C1061.038,380.71 1062.942,379.112 1062.942,375.916 C1062.942,372.72 1061.038,371.122 1057.23,371.122 L1057.23,371.122 L1048.56,371.122 L1048.56,368.776 C1048.56,365.58 1049.274,363.132 1050.702,361.432 C1052.13,359.732 1054.408,358.78 1057.536,358.576 L1057.536,358.576 L1060.188,358.372 C1063.52,358.032 1065.186,356.4 1065.186,353.476 C1065.186,351.844 1064.625,350.637 1063.503,349.855 C1062.381,349.073 1060.46,348.784 1057.74,348.988 L1057.74,348.988 L1055.088,349.192 C1048.968,349.668 1044.225,351.725 1040.859,355.363 C1037.493,359.001 1035.81,364.016 1035.81,370.408 L1035.81,370.408 L1035.81,371.122 L1030.71,371.122 C1026.902,371.122 1024.998,372.72 1024.998,375.916 C1024.998,379.112 1026.902,380.71 1030.71,380.71 L1030.71,380.71 L1035.81,380.71 L1035.81,415.492 C1035.81,417.464 1036.422,418.96 1037.646,419.98 C1038.87,421 1040.4,421.51 1042.236,421.51 Z M1092.216,421.816 C1094.868,421.816 1097.656,421.425 1100.58,420.643 C1103.504,419.861 1106.122,418.824 1108.434,417.532 C1110.95,416.104 1112.208,414.336 1112.208,412.228 C1112.208,410.732 1111.851,409.542 1111.137,408.658 C1110.423,407.774 1109.488,407.332 1108.332,407.332 C1107.38,407.332 1105.884,407.876 1103.844,408.964 C1101.736,409.916 1099.849,410.664 1098.183,411.208 C1096.517,411.752 1094.596,412.024 1092.42,412.024 C1088.136,412.024 1084.872,410.919 1082.628,408.709 C1080.384,406.499 1079.058,403.048 1078.65,398.356 L1078.65,398.356 L1108.74,398.356 C1111.324,398.356 1112.616,396.894 1112.616,393.97 C1112.616,389.074 1111.698,384.824 1109.862,381.22 C1108.026,377.616 1105.442,374.828 1102.11,372.856 C1098.778,370.884 1094.868,369.898 1090.38,369.898 C1085.688,369.898 1081.489,370.986 1077.783,373.162 C1074.077,375.338 1071.204,378.398 1069.164,382.342 C1067.124,386.286 1066.104,390.808 1066.104,395.908 C1066.104,403.932 1068.45,410.256 1073.142,414.88 C1077.834,419.504 1084.192,421.816 1092.216,421.816 Z M1101.702,391.522 L1078.65,391.522 C1079.058,387.442 1080.299,384.314 1082.373,382.138 C1084.447,379.962 1087.218,378.874 1090.686,378.874 C1094.086,378.874 1096.738,379.945 1098.642,382.087 C1100.546,384.229 1101.566,387.374 1101.702,391.522 L1101.702,391.522 Z M1129.344,421.612 C1131.18,421.612 1132.71,421.085 1133.934,420.031 C1135.158,418.977 1135.77,417.464 1135.77,415.492 L1135.77,415.492 L1135.77,394.072 C1135.77,390.604 1136.705,387.714 1138.575,385.402 C1140.445,383.09 1143.386,381.73 1147.398,381.322 L1147.398,381.322 L1150.458,381.016 C1152.77,380.744 1154.368,380.166 1155.252,379.282 C1156.136,378.398 1156.578,377.038 1156.578,375.202 C1156.578,373.434 1156.068,372.108 1155.048,371.224 C1154.028,370.34 1152.634,369.966 1150.866,370.102 L1150.866,370.102 L1149.438,370.204 C1146.31,370.408 1143.471,371.326 1140.921,372.958 C1138.371,374.59 1136.45,376.902 1135.158,379.894 L1135.158,379.894 L1135.158,375.814 C1135.158,373.978 1134.614,372.567 1133.526,371.581 C1132.438,370.595 1131.01,370.102 1129.242,370.102 C1127.474,370.102 1125.995,370.612 1124.805,371.632 C1123.615,372.652 1123.02,374.114 1123.02,376.018 L1123.02,376.018 L1123.02,415.492 C1123.02,417.464 1123.615,418.977 1124.805,420.031 C1125.995,421.085 1127.508,421.612 1129.344,421.612 Z M1185.444,421.816 C1188.096,421.816 1190.884,421.425 1193.808,420.643 C1196.732,419.861 1199.35,418.824 1201.662,417.532 C1204.178,416.104 1205.436,414.336 1205.436,412.228 C1205.436,410.732 1205.079,409.542 1204.365,408.658 C1203.651,407.774 1202.716,407.332 1201.56,407.332 C1200.608,407.332 1199.112,407.876 1197.072,408.964 C1194.964,409.916 1193.077,410.664 1191.411,411.208 C1189.745,411.752 1187.824,412.024 1185.648,412.024 C1181.364,412.024 1178.1,410.919 1175.856,408.709 C1173.612,406.499 1172.286,403.048 1171.878,398.356 L1171.878,398.356 L1201.968,398.356 C1204.552,398.356 1205.844,396.894 1205.844,393.97 C1205.844,389.074 1204.926,384.824 1203.09,381.22 C1201.254,377.616 1198.67,374.828 1195.338,372.856 C1192.006,370.884 1188.096,369.898 1183.608,369.898 C1178.916,369.898 1174.717,370.986 1171.011,373.162 C1167.305,375.338 1164.432,378.398 1162.392,382.342 C1160.352,386.286 1159.332,390.808 1159.332,395.908 C1159.332,403.932 1161.678,410.256 1166.37,414.88 C1171.062,419.504 1177.42,421.816 1185.444,421.816 Z M1194.93,391.522 L1171.878,391.522 C1172.286,387.442 1173.527,384.314 1175.601,382.138 C1177.675,379.962 1180.446,378.874 1183.914,378.874 C1187.314,378.874 1189.966,379.945 1191.87,382.087 C1193.774,384.229 1194.794,387.374 1194.93,391.522 L1194.93,391.522 Z M1256.64,421.612 C1258.612,421.612 1260.159,421.068 1261.281,419.98 C1262.403,418.892 1262.964,417.396 1262.964,415.492 L1262.964,415.492 L1262.964,390.4 C1262.964,383.532 1261.502,378.398 1258.578,374.998 C1255.654,371.598 1251.2,369.898 1245.216,369.898 C1241.612,369.898 1238.382,370.646 1235.526,372.142 C1232.67,373.638 1230.392,375.78 1228.692,378.568 L1228.692,378.568 L1228.692,375.814 C1228.692,374.114 1228.131,372.737 1227.009,371.683 C1225.887,370.629 1224.442,370.102 1222.674,370.102 C1220.702,370.102 1219.138,370.646 1217.982,371.734 C1216.826,372.822 1216.248,374.25 1216.248,376.018 L1216.248,376.018 L1216.248,415.492 C1216.248,417.396 1216.809,418.892 1217.931,419.98 C1219.053,421.068 1220.6,421.612 1222.572,421.612 C1224.544,421.612 1226.108,421.068 1227.264,419.98 C1228.42,418.892 1228.998,417.396 1228.998,415.492 L1228.998,415.492 L1228.998,392.746 C1228.998,388.87 1230.103,385.776 1232.313,383.464 C1234.523,381.152 1237.464,379.996 1241.136,379.996 C1244.264,379.996 1246.559,380.88 1248.021,382.648 C1249.483,384.416 1250.214,387.238 1250.214,391.114 L1250.214,391.114 L1250.214,415.492 C1250.214,417.396 1250.792,418.892 1251.948,419.98 C1253.104,421.068 1254.668,421.612 1256.64,421.612 Z M1298.052,421.816 C1300.976,421.816 1303.832,421.425 1306.62,420.643 C1309.408,419.861 1311.856,418.79 1313.964,417.43 C1315.12,416.75 1315.953,415.985 1316.463,415.135 C1316.973,414.285 1317.228,413.282 1317.228,412.126 C1317.228,410.698 1316.854,409.508 1316.106,408.556 C1315.358,407.604 1314.44,407.128 1313.352,407.128 C1312.604,407.128 1311.856,407.281 1311.108,407.587 C1310.36,407.893 1309.476,408.352 1308.456,408.964 C1306.824,409.848 1305.345,410.545 1304.019,411.055 C1302.693,411.565 1301.18,411.82 1299.48,411.82 C1295.264,411.82 1292.017,410.443 1289.739,407.689 C1287.461,404.935 1286.322,401.008 1286.322,395.908 C1286.322,390.74 1287.461,386.779 1289.739,384.025 C1292.017,381.271 1295.264,379.894 1299.48,379.894 C1301.248,379.894 1302.812,380.149 1304.172,380.659 C1305.532,381.169 1306.96,381.866 1308.456,382.75 C1309.272,383.226 1310.088,383.634 1310.904,383.974 C1311.72,384.314 1312.502,384.484 1313.25,384.484 C1314.406,384.484 1315.341,384.025 1316.055,383.107 C1316.769,382.189 1317.126,380.982 1317.126,379.486 C1317.126,377.31 1316.038,375.508 1313.862,374.08 C1311.822,372.788 1309.459,371.768 1306.773,371.02 C1304.087,370.272 1301.418,369.898 1298.766,369.898 C1293.734,369.898 1289.28,370.986 1285.404,373.162 C1281.528,375.338 1278.519,378.415 1276.377,382.393 C1274.235,386.371 1273.164,390.944 1273.164,396.112 C1273.164,401.28 1274.184,405.802 1276.224,409.678 C1278.264,413.554 1281.171,416.546 1284.945,418.654 C1288.719,420.762 1293.088,421.816 1298.052,421.816 Z M1349.052,421.816 C1351.704,421.816 1354.492,421.425 1357.416,420.643 C1360.34,419.861 1362.958,418.824 1365.27,417.532 C1367.786,416.104 1369.044,414.336 1369.044,412.228 C1369.044,410.732 1368.687,409.542 1367.973,408.658 C1367.259,407.774 1366.324,407.332 1365.168,407.332 C1364.216,407.332 1362.72,407.876 1360.68,408.964 C1358.572,409.916 1356.685,410.664 1355.019,411.208 C1353.353,411.752 1351.432,412.024 1349.256,412.024 C1344.972,412.024 1341.708,410.919 1339.464,408.709 C1337.22,406.499 1335.894,403.048 1335.486,398.356 L1335.486,398.356 L1365.576,398.356 C1368.16,398.356 1369.452,396.894 1369.452,393.97 C1369.452,389.074 1368.534,384.824 1366.698,381.22 C1364.862,377.616 1362.278,374.828 1358.946,372.856 C1355.614,370.884 1351.704,369.898 1347.216,369.898 C1342.524,369.898 1338.325,370.986 1334.619,373.162 C1330.913,375.338 1328.04,378.398 1326,382.342 C1323.96,386.286 1322.94,390.808 1322.94,395.908 C1322.94,403.932 1325.286,410.256 1329.978,414.88 C1334.67,419.504 1341.028,421.816 1349.052,421.816 Z M1358.538,391.522 L1335.486,391.522 C1335.894,387.442 1337.135,384.314 1339.209,382.138 C1341.283,379.962 1344.054,378.874 1347.522,378.874 C1350.922,378.874 1353.574,379.945 1355.478,382.087 C1357.382,384.229 1358.402,387.374 1358.538,391.522 L1358.538,391.522 Z M1468.188,421.408 C1469.82,421.408 1471.265,420.864 1472.523,419.776 C1473.781,418.688 1474.41,417.362 1474.41,415.798 C1474.41,414.914 1474.206,414.03 1473.798,413.146 L1473.798,413.146 L1445.544,352.66 C1444.932,351.3 1443.997,350.263 1442.739,349.549 C1441.481,348.835 1440.138,348.478 1438.71,348.478 C1437.282,348.478 1435.939,348.835 1434.681,349.549 C1433.423,350.263 1432.488,351.3 1431.876,352.66 L1431.876,352.66 L1403.724,413.146 C1403.316,414.03 1403.112,414.914 1403.112,415.798 C1403.112,417.362 1403.758,418.688 1405.05,419.776 C1406.342,420.864 1407.77,421.408 1409.334,421.408 C1410.49,421.408 1411.544,421.119 1412.496,420.541 C1413.448,419.963 1414.196,419.062 1414.74,417.838 L1414.74,417.838 L1420.86,404.17 L1456.764,404.17 L1462.884,417.838 C1463.428,419.062 1464.176,419.963 1465.128,420.541 C1466.08,421.119 1467.1,421.408 1468.188,421.408 Z M1452.276,393.97 L1425.348,393.97 L1438.812,363.676 L1452.276,393.97 Z M1490.832,421.612 C1492.872,421.612 1494.487,421.017 1495.677,419.827 C1496.867,418.637 1497.462,417.022 1497.462,414.982 L1497.462,414.982 L1497.462,393.052 L1515.72,393.052 C1523.404,393.052 1529.388,391.114 1533.672,387.238 C1537.956,383.362 1540.098,377.956 1540.098,371.02 C1540.098,364.084 1537.956,358.695 1533.672,354.853 C1529.388,351.011 1523.404,349.09 1515.72,349.09 L1515.72,349.09 L1490.628,349.09 C1488.656,349.09 1487.109,349.634 1485.987,350.722 C1484.865,351.81 1484.304,353.34 1484.304,355.312 L1484.304,355.312 L1484.304,414.982 C1484.304,417.022 1484.899,418.637 1486.089,419.827 C1487.279,421.017 1488.86,421.612 1490.832,421.612 Z M1514.088,382.954 L1497.462,382.954 L1497.462,359.29 L1514.088,359.29 C1523.132,359.29 1527.654,363.234 1527.654,371.122 C1527.654,379.01 1523.132,382.954 1514.088,382.954 L1514.088,382.954 Z M1558.152,421.612 C1560.192,421.612 1561.807,421 1562.997,419.776 C1564.187,418.552 1564.782,416.954 1564.782,414.982 L1564.782,414.982 L1564.782,355.108 C1564.782,353.136 1564.187,351.555 1562.997,350.365 C1561.807,349.175 1560.192,348.58 1558.152,348.58 C1556.18,348.58 1554.599,349.175 1553.409,350.365 C1552.219,351.555 1551.624,353.136 1551.624,355.108 L1551.624,355.108 L1551.624,414.982 C1551.624,416.954 1552.219,418.552 1553.409,419.776 C1554.599,421 1556.18,421.612 1558.152,421.612 Z M1632.816,421.918 C1638.324,421.918 1643.203,421.017 1647.453,419.215 C1651.703,417.413 1655.001,414.897 1657.347,411.667 C1659.693,408.437 1660.866,404.714 1660.866,400.498 C1660.866,396.622 1659.863,393.392 1657.857,390.808 C1655.851,388.224 1652.961,386.099 1649.187,384.433 C1645.413,382.767 1640.5,381.254 1634.448,379.894 C1628.736,378.602 1624.69,377.208 1622.31,375.712 C1619.93,374.216 1618.74,372.074 1618.74,369.286 C1618.74,365.954 1620.083,363.353 1622.769,361.483 C1625.455,359.613 1629.11,358.678 1633.734,358.678 C1637.542,358.678 1640.755,359.171 1643.373,360.157 C1645.991,361.143 1648.694,362.656 1651.482,364.696 C1652.434,365.24 1653.199,365.614 1653.777,365.818 C1654.355,366.022 1654.984,366.124 1655.664,366.124 C1656.82,366.124 1657.823,365.597 1658.673,364.543 C1659.523,363.489 1659.948,362.248 1659.948,360.82 C1659.948,359.732 1659.761,358.831 1659.387,358.117 C1659.013,357.403 1658.384,356.672 1657.5,355.924 C1651.38,350.756 1643.458,348.172 1633.734,348.172 C1628.43,348.172 1623.653,349.107 1619.403,350.977 C1615.153,352.847 1611.838,355.448 1609.458,358.78 C1607.078,362.112 1605.888,365.886 1605.888,370.102 C1605.888,374.182 1606.84,377.548 1608.744,380.2 C1610.648,382.852 1613.47,385.028 1617.21,386.728 C1620.95,388.428 1625.812,389.924 1631.796,391.216 C1637.576,392.508 1641.707,393.851 1644.189,395.245 C1646.671,396.639 1647.912,398.628 1647.912,401.212 C1647.912,404.544 1646.586,407.077 1643.934,408.811 C1641.282,410.545 1637.474,411.412 1632.51,411.412 C1628.634,411.412 1625.098,410.936 1621.902,409.984 C1618.706,409.032 1615.646,407.502 1612.722,405.394 C1611.158,404.442 1609.764,403.966 1608.54,403.966 C1607.384,403.966 1606.381,404.493 1605.531,405.547 C1604.681,406.601 1604.256,407.842 1604.256,409.27 C1604.256,411.378 1605.038,413.01 1606.602,414.166 C1609.526,416.546 1613.317,418.433 1617.975,419.827 C1622.633,421.221 1627.58,421.918 1632.816,421.918 Z M1695.24,421.816 C1697.892,421.816 1700.68,421.425 1703.604,420.643 C1706.528,419.861 1709.146,418.824 1711.458,417.532 C1713.974,416.104 1715.232,414.336 1715.232,412.228 C1715.232,410.732 1714.875,409.542 1714.161,408.658 C1713.447,407.774 1712.512,407.332 1711.356,407.332 C1710.404,407.332 1708.908,407.876 1706.868,408.964 C1704.76,409.916 1702.873,410.664 1701.207,411.208 C1699.541,411.752 1697.62,412.024 1695.444,412.024 C1691.16,412.024 1687.896,410.919 1685.652,408.709 C1683.408,406.499 1682.082,403.048 1681.674,398.356 L1681.674,398.356 L1711.764,398.356 C1714.348,398.356 1715.64,396.894 1715.64,393.97 C1715.64,389.074 1714.722,384.824 1712.886,381.22 C1711.05,377.616 1708.466,374.828 1705.134,372.856 C1701.802,370.884 1697.892,369.898 1693.404,369.898 C1688.712,369.898 1684.513,370.986 1680.807,373.162 C1677.101,375.338 1674.228,378.398 1672.188,382.342 C1670.148,386.286 1669.128,390.808 1669.128,395.908 C1669.128,403.932 1671.474,410.256 1676.166,414.88 C1680.858,419.504 1687.216,421.816 1695.24,421.816 Z M1704.726,391.522 L1681.674,391.522 C1682.082,387.442 1683.323,384.314 1685.397,382.138 C1687.471,379.962 1690.242,378.874 1693.71,378.874 C1697.11,378.874 1699.762,379.945 1701.666,382.087 C1703.57,384.229 1704.59,387.374 1704.726,391.522 L1704.726,391.522 Z M1732.368,421.612 C1734.204,421.612 1735.734,421.085 1736.958,420.031 C1738.182,418.977 1738.794,417.464 1738.794,415.492 L1738.794,415.492 L1738.794,394.072 C1738.794,390.604 1739.729,387.714 1741.599,385.402 C1743.469,383.09 1746.41,381.73 1750.422,381.322 L1750.422,381.322 L1753.482,381.016 C1755.794,380.744 1757.392,380.166 1758.276,379.282 C1759.16,378.398 1759.602,377.038 1759.602,375.202 C1759.602,373.434 1759.092,372.108 1758.072,371.224 C1757.052,370.34 1755.658,369.966 1753.89,370.102 L1753.89,370.102 L1752.462,370.204 C1749.334,370.408 1746.495,371.326 1743.945,372.958 C1741.395,374.59 1739.474,376.902 1738.182,379.894 L1738.182,379.894 L1738.182,375.814 C1738.182,373.978 1737.638,372.567 1736.55,371.581 C1735.462,370.595 1734.034,370.102 1732.266,370.102 C1730.498,370.102 1729.019,370.612 1727.829,371.632 C1726.639,372.652 1726.044,374.114 1726.044,376.018 L1726.044,376.018 L1726.044,415.492 C1726.044,417.464 1726.639,418.977 1727.829,420.031 C1729.019,421.085 1730.532,421.612 1732.368,421.612 Z M1785.408,421.51 C1786.768,421.51 1788.009,421.17 1789.131,420.49 C1790.253,419.81 1791.12,418.824 1791.732,417.532 L1791.732,417.532 L1810.602,378.058 C1811.01,377.242 1811.214,376.426 1811.214,375.61 C1811.214,374.046 1810.585,372.737 1809.327,371.683 C1808.069,370.629 1806.658,370.102 1805.094,370.102 C1804.006,370.102 1803.003,370.408 1802.085,371.02 C1801.167,371.632 1800.436,372.55 1799.892,373.774 L1799.892,373.774 L1785.714,405.19 L1771.434,373.672 C1770.278,371.292 1768.476,370.102 1766.028,370.102 C1764.328,370.102 1762.815,370.646 1761.489,371.734 C1760.163,372.822 1759.5,374.148 1759.5,375.712 C1759.5,376.596 1759.67,377.378 1760.01,378.058 L1760.01,378.058 L1778.982,417.532 C1779.594,418.824 1780.495,419.81 1781.685,420.49 C1782.875,421.17 1784.116,421.51 1785.408,421.51 Z M1842.12,421.816 C1844.772,421.816 1847.56,421.425 1850.484,420.643 C1853.408,419.861 1856.026,418.824 1858.338,417.532 C1860.854,416.104 1862.112,414.336 1862.112,412.228 C1862.112,410.732 1861.755,409.542 1861.041,408.658 C1860.327,407.774 1859.392,407.332 1858.236,407.332 C1857.284,407.332 1855.788,407.876 1853.748,408.964 C1851.64,409.916 1849.753,410.664 1848.087,411.208 C1846.421,411.752 1844.5,412.024 1842.324,412.024 C1838.04,412.024 1834.776,410.919 1832.532,408.709 C1830.288,406.499 1828.962,403.048 1828.554,398.356 L1828.554,398.356 L1858.644,398.356 C1861.228,398.356 1862.52,396.894 1862.52,393.97 C1862.52,389.074 1861.602,384.824 1859.766,381.22 C1857.93,377.616 1855.346,374.828 1852.014,372.856 C1848.682,370.884 1844.772,369.898 1840.284,369.898 C1835.592,369.898 1831.393,370.986 1827.687,373.162 C1823.981,375.338 1821.108,378.398 1819.068,382.342 C1817.028,386.286 1816.008,390.808 1816.008,395.908 C1816.008,403.932 1818.354,410.256 1823.046,414.88 C1827.738,419.504 1834.096,421.816 1842.12,421.816 Z M1851.606,391.522 L1828.554,391.522 C1828.962,387.442 1830.203,384.314 1832.277,382.138 C1834.351,379.962 1837.122,378.874 1840.59,378.874 C1843.99,378.874 1846.642,379.945 1848.546,382.087 C1850.45,384.229 1851.47,387.374 1851.606,391.522 L1851.606,391.522 Z M1879.248,421.612 C1881.084,421.612 1882.614,421.085 1883.838,420.031 C1885.062,418.977 1885.674,417.464 1885.674,415.492 L1885.674,415.492 L1885.674,394.072 C1885.674,390.604 1886.609,387.714 1888.479,385.402 C1890.349,383.09 1893.29,381.73 1897.302,381.322 L1897.302,381.322 L1900.362,381.016 C1902.674,380.744 1904.272,380.166 1905.156,379.282 C1906.04,378.398 1906.482,377.038 1906.482,375.202 C1906.482,373.434 1905.972,372.108 1904.952,371.224 C1903.932,370.34 1902.538,369.966 1900.77,370.102 L1900.77,370.102 L1899.342,370.204 C1896.214,370.408 1893.375,371.326 1890.825,372.958 C1888.275,374.59 1886.354,376.902 1885.062,379.894 L1885.062,379.894 L1885.062,375.814 C1885.062,373.978 1884.518,372.567 1883.43,371.581 C1882.342,370.595 1880.914,370.102 1879.146,370.102 C1877.378,370.102 1875.899,370.612 1874.709,371.632 C1873.519,372.652 1872.924,374.114 1872.924,376.018 L1872.924,376.018 L1872.924,415.492 C1872.924,417.464 1873.519,418.977 1874.709,420.031 C1875.899,421.085 1877.412,421.612 1879.248,421.612 Z" id="TheScalableModelInferenceAPIServer" fill="#FFFFFF" fill-rule="nonzero"></path>
            </g>
        </g>
    </g>
</svg>