<?xml version="1.0" encoding="UTF-8"?>
<svg width="766px" height="586px" viewBox="0 0 766 586" version="1.1" xmlns="http://www.w3.org/2000/svg" xmlns:xlink="http://www.w3.org/1999/xlink">
    <title>Group 220</title>
    <defs>
        <filter id="filter-1">
            <feColorMatrix in="SourceGraphic" type="matrix" values="0 0 0 0 1.000000 0 0 0 0 1.000000 0 0 0 0 1.000000 0 0 0 1.000000 0"></feColorMatrix>
        </filter>
    </defs>
    <g id="Website" stroke="none" stroke-width="1" fill="none" fill-rule="evenodd">
        <g id="Group-217-Copy" transform="translate(-130.000000, -176.000000)">
            <g id="Group-220" transform="translate(130.909091, 176.000000)">
                <g filter="url(#filter-1)" id="Group-8-Copy-6">
                    <g>
                        <path d="M199.090909,249.255584 C199.090909,246.566688 198.353962,243.877792 197.617015,241.577856 L121.84914,19.202776 C117.79998,6.91671985 110.81113,0 99.7731213,0 C88.7432104,0 82.4913079,6.91671985 78.4421483,19.202776 L1.5648032,241.577856 C0.827856147,243.877792 0.0909090909,246.566688 0.0909090909,249.255584 C0.0909090909,258.8612 7.07975864,265 15.5425023,265 C22.9038745,265 28.7832543,260.780632 31.3585199,252.713944 L48.2840072,202.40284 L48.381187,202.40284 L59.0466735,170.905552 L58.9494937,170.905552 L99.4086969,52.2305361 L100.510068,52.2305361 L140.240423,170.905552 L140.135145,170.905552 L150.792533,202.40284 L150.905909,202.40284 L167.823298,252.713944 C170.398564,260.780632 176.286042,265 183.639316,265 C192.10206,265 199.090909,258.8612 199.090909,249.255584" id="Fill-6" fill="#000000"></path>
                        <path d="M237.090909,246.566688 C237.090909,258.091736 242.555036,265 250.744546,265 C258.633462,265 264.090909,258.091736 264.090909,246.566688 L264.090909,18.4333121 C264.090909,6.91671985 258.633462,0 250.744546,0 C242.555036,0 237.090909,6.91671985 237.090909,18.4333121 L237.090909,246.566688 Z" id="Fill-7" fill="#000000"></path>
                        <path d="M334.090909,247.716656 C334.090909,258.47224 340.287293,265 349.405289,265 C358.515258,265 364.350455,258.47224 364.350455,247.716656 L364.350455,77.580568 L365.442046,77.580568 L422.317149,210.080568 C428.152345,223.516592 432.526735,226.974952 440.906302,226.974952 C449.293895,226.974952 454.029473,223.516592 459.864669,210.080568 L516.739773,77.580568 L517.831364,77.580568 L517.831364,247.716656 C517.831364,258.47224 523.66656,265 532.776529,265 C541.894525,265 548.090909,258.47224 548.090909,247.716656 L548.090909,21.122208 C548.090909,8.06668794 541.164122,0 529.862944,0 C520.022572,0 514.917779,6.13880026 509.812985,18.4333121 L442.367107,181.661136 L441.275516,181.661136 L372.738047,18.4333121 C367.633254,6.13880026 362.159246,0 352.318874,0 C341.017696,0 334.090909,8.06668794 334.090909,21.122208 L334.090909,247.716656 Z" id="Fill-8" fill="#000000"></path>
                        <path d="M622.559078,11 C612.268473,11 606.090909,16.8684142 606.090909,25.6634338 C606.090909,34.1391874 612.268473,40 622.559078,40 L747.62274,40 C757.913345,40 764.090909,34.1391874 764.090909,25.6634338 C764.090909,16.8684142 757.913345,11 747.62274,11 L622.559078,11 Z" id="Fill-9" fill="#000000"></path>
                        <path d="M622.559078,228 C612.268473,228 606.090909,233.868414 606.090909,242.663434 C606.090909,251.139187 612.268473,257 622.559078,257 L747.62274,257 C757.913345,257 764.090909,251.139187 764.090909,242.663434 C764.090909,233.868414 757.913345,228 747.62274,228 L622.559078,228 Z" id="Fill-10" fill="#000000"></path>
                        <path d="M622.559078,120 C612.268473,120 606.090909,125.868414 606.090909,134.663434 C606.090909,143.139187 612.268473,149 622.559078,149 L747.62274,149 C757.913345,149 764.090909,143.139187 764.090909,134.663434 C764.090909,125.868414 757.913345,120 747.62274,120 L622.559078,120 Z" id="Fill-11" fill="#000000"></path>
                    </g>
                </g>
                <g id="Group-218" transform="translate(366.000000, 403.306514)" fill="#FFFFFF" fill-rule="nonzero">
                    <g id="Group-199" transform="translate(362.090909, 0.693486)">
                        <path d="M18,179 C23.5384615,179 27.9230769,177.25 31.1538462,173.75 C34.3846154,170.25 36,165.5 36,159.5 L36,159.5 L36,19.25 C36,13.4166667 34.3846154,8.75 31.1538462,5.25 C27.9230769,1.75 23.5384615,0 18,0 C12.4615385,0 8.07692308,1.75 4.84615385,5.25 C1.61538462,8.75 0,13.4166667 0,19.25 L0,19.25 L0,159.5 C0,165.5 1.61538462,170.25 4.84615385,173.75 C8.07692308,177.25 12.4615385,179 18,179 Z" id="I"></path>
                    </g>
                    <g id="Group-197" transform="translate(0.090909, 1.693486)">
                        <path d="M150.685237,179 C155.208914,179 159.225627,177.372727 162.735376,174.118182 C166.245125,170.863636 168,166.899767 168,162.226573 C168,159.889977 167.376045,157.21958 166.128134,154.215385 L166.128134,154.215385 L102.952646,12.2671329 C101.08078,8.42843823 98.4289694,5.42424242 94.9972145,3.25454545 C91.5654596,1.08484848 87.821727,0 83.7660167,0 C79.8662953,0 76.2005571,1.04312354 72.7688022,3.12937063 C69.3370474,5.21561772 66.7632312,8.26153846 65.0473538,12.2671329 L65.0473538,12.2671329 L1.8718663,154.215385 C0.623955432,157.21958 0,159.889977 0,162.226573 C0,166.899767 1.79387187,170.863636 5.3816156,174.118182 C8.96935933,177.372727 13.0250696,179 17.5487465,179 C20.6685237,179 23.5153203,178.123776 26.0891365,176.371329 C28.6629526,174.618881 30.6518106,171.99021 32.0557103,168.485315 L32.0557103,168.485315 L44.4568245,138.944056 L123.777159,138.944056 L136.178273,168.485315 C137.582173,171.99021 139.610028,174.618881 142.261838,176.371329 C144.913649,178.123776 147.721448,179 150.685237,179 Z M111.325301,107.806818 L56.6746988,107.806818 L84.117276,42.7159091 L111.325301,107.806818 Z" id="A"></path>
                    </g>
                    <g id="Group-198" transform="translate(200.090909, 6.693486)">
                        <path d="M18.021164,173 C23.5661376,173 27.9559083,171.296765 31.1904762,167.890295 C34.4250441,164.483826 36.042328,159.860759 36.042328,154.021097 L36.042328,154.021097 L36.042328,107.060478 L74.8571429,107.060478 C92.5702528,107.060478 106.355673,102.356306 116.213404,92.9479606 C126.071135,83.5396156 131,70.4003751 131,53.5302391 C131,36.6601031 126.071135,23.5208626 116.213404,14.1125176 C106.355673,4.70417253 92.5702528,0 74.8571429,0 L74.8571429,0 L16.8659612,0 C11.4750147,0 7.31628454,1.54102203 4.38977072,4.6230661 C1.46325691,7.70511017 0,12.084857 0,17.7623066 L0,17.7623066 L0,154.021097 C0,159.860759 1.61728395,164.483826 4.85185185,167.890295 C8.08641975,171.296765 12.4761905,173 18.021164,173 Z M70.1151238,78.3588235 L35.8203125,78.3588235 L35.8203125,29.5117647 L70.1151238,29.5117647 C88.1894163,29.5117647 97.2265625,37.6930455 97.2265625,54.0556071 C97.2265625,70.2577514 88.1894163,78.3588235 70.1151238,78.3588235 L70.1151238,78.3588235 Z" id="P"></path>
                    </g>
                </g>
                <g id="Group-219" transform="translate(0.090909, 400.122641)">
                    <path d="M39.3865789,0.877358661 C27.2723221,0.877358661 20,7.75756836 20,18.0689707 C20,28.0060612 27.2723221,34.8773587 39.3865789,34.8773587 L186.613421,34.8773587 C198.727678,34.8773587 206,28.0060612 206,18.0689707 C206,7.75756836 198.727678,0.877358661 186.613421,0.877358661 L39.3865789,0.877358661 Z" id="Fill-9" fill="#D55151"></path>
                    <path d="M19.3865789,150.877359 C7.27232211,150.877359 0,157.757568 0,168.068971 C0,178.006061 7.27232211,184.877359 19.3865789,184.877359 L166.613421,184.877359 C178.727678,184.877359 186,178.006061 186,168.068971 C186,157.757568 178.727678,150.877359 166.613421,150.877359 L19.3865789,150.877359 Z" id="Fill-10" fill="#00C2DA"></path>
                    <path d="M84.3865789,75.8773587 C72.2723221,75.8773587 65,82.7575684 65,93.0689707 C65,103.006061 72.2723221,109.877359 84.3865789,109.877359 L231.613421,109.877359 C243.727678,109.877359 251,103.006061 251,93.0689707 C251,82.7575684 243.727678,75.8773587 231.613421,75.8773587 L84.3865789,75.8773587 Z" id="Fill-11" fill="#FFBC44"></path>
                </g>
            </g>
        </g>
    </g>
</svg>